<svg width="30" height="30" viewBox="0 0 30 30" fill="none" xmlns="http://www.w3.org/2000/svg">
<g id="adobe-ai-svgrepo-com" clip-path="url(#clip0_499_12)">
<g id="SVGRepo_iconCarrier">
<path id="Vector" d="M23.75 6.25V23.75H6.25V6.25H23.75ZM23.75 3.75H6.25C5.58696 3.75 4.95107 4.01339 4.48223 4.48223C4.01339 4.95107 3.75 5.58696 3.75 6.25V23.75C3.75 24.413 4.01339 25.0489 4.48223 25.5178C4.95107 25.9866 5.58696 26.25 6.25 26.25H23.75C24.413 26.25 25.0489 25.9866 25.5178 25.5178C25.9866 25.0489 26.25 24.413 26.25 23.75V6.25C26.25 5.58696 25.9866 4.95107 25.5178 4.48223C25.0489 4.01339 24.413 3.75 23.75 3.75Z" fill="#492C88"/>
<g id="Group">
<path id="Vector_2" d="M15.375 20.225L14.6625 17.8875H11.075L10.3625 20.225H8.125L11.5875 10.3625H14.0875L17.5625 20.225H15.375ZM14.125 16.1375C13.4625 14.025 13.1 12.825 13.0125 12.55C12.925 12.275 12.875 12.05 12.8375 11.8875C12.6875 12.4625 12.2625 13.8875 11.5875 16.1375H14.125Z" fill="#492C88"/>
<path id="Vector_3" d="M18.6001 10.775C18.6001 10.1125 18.9751 9.77502 19.7126 9.77502C20.4501 9.77502 20.8251 10.1125 20.8251 10.775C20.8346 10.9105 20.815 11.0464 20.7676 11.1736C20.7201 11.3008 20.646 11.4164 20.5501 11.5125C20.4362 11.6124 20.3033 11.6882 20.1594 11.7355C20.0155 11.7827 19.8635 11.8004 19.7126 11.7875C18.9751 11.7875 18.6001 11.45 18.6001 10.775ZM20.7376 20.225H18.7501V12.725H20.8001L20.7376 20.225Z" fill="#492C88"/>
</g>
</g>
</g>
<defs>
<clipPath id="clip0_499_12">
<rect width="30" height="30" fill="white"/>
</clipPath>
</defs>
</svg>
