<svg width="50" height="70" viewBox="0 0 50 70" fill="none" xmlns="http://www.w3.org/2000/svg">
<g id="SVGRepo_iconCarrier">
<path id="Vector" d="M42.6883 23.7736C45.3503 22.5132 47.4864 20.4344 48.75 17.8744C50.0135 15.3145 50.3304 12.4237 49.6493 9.67096C48.9681 6.91824 47.3289 4.46515 44.9975 2.70967C42.6661 0.954192 39.7793 -0.000671202 36.8055 3.53987e-07H13.1945C10.2207 -0.000671202 7.33394 0.954192 5.00254 2.70967C2.67114 4.46515 1.03188 6.91824 0.350726 9.67096C-0.330431 12.4237 -0.0135225 15.3145 1.25004 17.8744C2.51359 20.4344 4.64966 22.5132 7.31169 23.7736C5.11545 24.8129 3.26763 26.4142 1.97596 28.3975C0.684292 30.3807 5.3073e-07 32.6673 1.82079e-05 35.0001C3.5885e-05 37.3329 0.684362 39.6195 1.97606 41.6027C3.26776 43.586 5.11561 45.1872 7.31186 46.2265C5.20853 47.2234 3.4234 48.7365 2.14108 50.6093C0.858752 52.4821 0.125783 54.6466 0.0179658 56.8791C-0.089851 59.1116 0.431398 61.3309 1.52781 63.3076C2.62422 65.2843 4.256 66.9466 6.25439 68.1226C8.25278 69.2986 10.5452 69.9456 12.8947 69.9967C15.2442 70.0478 17.5654 69.5012 19.6182 68.4134C21.6711 67.3255 23.3811 65.7359 24.5714 63.809C25.7618 61.882 26.3892 59.6877 26.3889 57.4529V42.6876C27.6033 44.1767 29.155 45.3865 30.9286 46.227C32.7022 47.0675 34.6522 47.5171 36.6337 47.5425C38.6152 47.5678 40.5772 47.1682 42.374 46.3734C44.1707 45.5785 45.7561 44.4089 47.0121 42.9513C48.2682 41.4938 49.1627 39.7858 49.6293 37.9543C50.0958 36.1228 50.1224 34.2149 49.7069 32.3723C49.2915 30.5297 48.4448 28.7998 47.2297 27.3112C46.0146 25.8225 44.4623 24.6134 42.6883 23.7736ZM47.2222 12.5473C47.2191 15.1724 46.1216 17.6893 44.1702 19.5461C42.2188 21.4029 39.5729 22.4483 36.8123 22.4529L36.8055 22.4527L36.7922 22.453L26.3889 22.4527V2.64153H36.8055C39.5673 2.64451 42.215 3.68911 44.1678 5.54615C46.1206 7.40319 47.2191 9.92103 47.2222 12.5473ZM28.7213 25.0943C27.8501 25.7388 27.0666 26.4839 26.3889 27.3124V25.0943L28.7213 25.0943ZM2.7778 12.5473C2.78093 9.92103 3.8794 7.40319 5.83222 5.54615C7.78505 3.68911 10.4327 2.64451 13.1945 2.64153H23.6111V22.4527H13.1945L13.1879 22.4529C10.4273 22.4482 7.78133 21.4029 5.82993 19.5461C3.87854 17.6893 2.78096 15.1724 2.7778 12.5473ZM13.1945 67.3585C11.8258 67.3595 10.4704 67.1041 9.20562 66.6068C7.94086 66.1094 6.79155 65.38 5.82339 64.46C4.85522 63.5401 4.08719 62.4478 3.56318 61.2454C3.03917 60.0431 2.76946 58.7544 2.76946 57.4529C2.76946 56.1514 3.03917 54.8626 3.56318 53.6603C4.08719 52.458 4.85522 51.3656 5.82339 50.4457C6.79155 49.5258 7.94086 48.7963 9.20562 48.299C10.4704 47.8017 11.8258 47.5462 13.1945 47.5473L23.6111 47.547V57.4529C23.608 60.0791 22.5095 62.5969 20.5567 64.4539C18.6038 66.311 15.9561 67.3555 13.1945 67.3585ZM23.6111 44.9054L13.1945 44.9058C10.4327 44.9053 7.78413 43.8619 5.83111 42.005C3.87809 40.148 2.78048 37.6295 2.77961 35.0032C2.77874 32.3769 3.87466 29.8577 5.82644 27.9996C7.77822 26.1415 10.4261 25.0965 13.1879 25.0944L13.1945 25.0946L23.6111 25.0943V44.9054ZM36.8055 44.9058C34.0447 44.9049 31.397 43.8618 29.4445 42.0056C27.4919 40.1494 26.3941 37.632 26.3924 35.0065C26.3906 32.381 27.485 29.8623 29.435 28.0037C31.3851 26.1451 34.0313 25.0988 36.7922 25.0946H36.8055L36.8121 25.0944C39.5731 25.0977 42.2197 26.1433 44.1704 28.0013C46.1212 29.8592 47.2164 32.3777 47.2155 35.0032C47.2147 37.6287 46.1177 40.1465 44.1658 42.0033C42.2138 43.8602 39.5665 44.9041 36.8055 44.9058Z" fill="#492C88"/>
</g>
</svg>
