<svg width="72" height="72" viewBox="0 0 72 72" fill="none" xmlns="http://www.w3.org/2000/svg">
<g id="SVGRepo_iconCarrier">
<path id="Vector" d="M28.8933 42.2258L26.5897 36.2364L26.5972 36.2277H34.0469L28.8933 42.2258ZM25.5217 37.4315L21.3767 42.2556H27.3772L25.5217 37.4315ZM30.7778 42.2556H41.2219L36.0431 36.228H35.9569L30.7778 42.2556ZM45.4356 36.2662L45.4028 36.228H37.9525L43.1258 42.2491L45.4356 36.2662ZM50.6233 42.2556L46.5031 37.4604L44.6519 42.2556H50.6233ZM44.0892 43.7624L37.7114 60.2835L50.6603 43.7624H44.0892ZM21.3397 43.7624L34.2969 60.2953L27.9381 43.7624H21.3397ZM35.9925 60.6858L42.5422 43.7624H29.4842L35.9925 60.6858ZM1 19.8353C1 23.6806 3.67361 26.9484 7.11111 28.1499V65.9398H1V71H71V65.9398H64.8889V28.1437C68.4694 27.0347 70.9164 23.8155 71 19.8353V17.5863H1V19.8353ZM18.5806 19.6515C18.5806 21.4723 20.4569 28.4985 27.3936 28.4985C33.4183 28.4985 36.0608 22.9842 36.0608 19.6515C36.0608 22.7585 38.1192 28.492 44.8008 28.492C50.8378 28.492 53.5128 22.5887 53.5128 19.6515C53.5128 23.7067 56.2144 27.0777 59.8889 28.1285V65.9398H12.1111V28.1549C15.8339 27.135 18.5806 23.7416 18.5806 19.6515ZM62.3422 6.62249H62.3889V1H9.88889V6.62249L1 15.6185H71L62.3422 6.62249Z" fill="#492C88" stroke="#492C88" stroke-width="0.746094"/>
</g>
</svg>
